<svg xmlns="http://www.w3.org/2000/svg" width="23" height="37" viewBox="0 0 23 37"><g><g><path fill="#ffff" d="M13.154 11.416a1.66 1.66 0 0 1-1.657 1.659 1.66 1.66 0 0 1 0-3.318 1.66 1.66 0 0 1 1.657 1.66zM12.45-.007c5.932.479 10.545 5.451 10.545 11.423V25.49c0 6.347-5.158 11.511-11.5 11.511C5.157 37.001 0 31.837 0 25.491V11.415C-.001 5.44 4.612.468 10.543-.007zm8.637 25.497V11.416c0-5.295-4.303-9.601-9.591-9.601-5.289 0-9.59 4.306-9.59 9.6V25.49c0 5.295 4.302 9.601 9.59 9.601s9.59-4.306 9.59-9.601z"/></g></g></svg>