<?xml version="1.0" ?><!DOCTYPE svg  PUBLIC '-//W3C//DTD SVG 1.1//EN'  'http://www.w3.org/Graphics/SVG/1.1/DTD/svg11.dtd'><svg height="148px" style="enable-background:new 0 0 84 148;" version="1.1" viewBox="0 0 84 148" width="84px" xml:space="preserve" xmlns="http://www.w3.org/2000/svg" xmlns:xlink="http://www.w3.org/1999/xlink"><style type="text/css">
<![CDATA[
	.st0{fill:#EF3E42;}
	.st1{fill:#FFFFFF;}
	.st2{fill:none;}
	.st3{fill-rule:evenodd;clip-rule:evenodd;fill:#FFFFFF;}
]]>
</style><defs/><path d="M19.9,60.2c0,10.2,8.3,18.5,18.5,18.5c10.2,0,18.5-8.3,18.5-18.5c0-10.2-8.3-18.5-18.5-18.5C28.2,41.7,19.9,50,19.9,60.2  L19.9,60.2z M38.4,25.1c25.8,0,43.5,27.9,29.9,52C57.5,96.3,50.8,110.6,44,128.2c-0.8,2.2-2.8,4-5.6,4c-2.8,0-4.8-1.9-5.6-4  C26,110.6,19.3,96.3,8.5,77.1C-5.1,53,12.6,25.1,38.4,25.1L38.4,25.1z"/><rect class="st2" height="148" id="_x3C_Slice_x3E__100_" width="84"/></svg>