<svg xmlns="http://www.w3.org/2000/svg" >
    <symbol id="facebook" viewBox="0 0 512 512">
        <g>
            <path d="M308.3,508.5c-2.5,0.1-4.1,0.3-5.7,0.3c-34.2,0-68.3-0.1-102.5,0.1c-4.8,0-6.1-1.3-6.1-6.1c0.1-79.6,0.1-159.3,0.1-238.9
                0-2.1,0-4.2,0-6.9c-18.6,0-36.7,0-55.1,0c0-28.4,0-56.3,0-85c1.9,0,3.7,0,5.4,0c15,0,30-0.1,45,0.1c3.8,0,4.8-1.1,4.8-4.8
                c-0.2-22.3-0.2-44.7,0-67c0.1-15.6,2.6-30.8,9.8-44.9c10.3-19.9,26.6-32.8,47.2-40.8c16.8-6.6,34.5-9,52.3-9.3
                c29-0.4,58-0.2,87-0.3c2.7,0,4.9-0.1,4.9,3.7c-0.1,27.5-0.1,55-0.1,82.5c0,0.3-0.1,0.6-0.5,1.9c-1.7,0-3.6,0-5.5,0
                c-18,0-36-0.1-54,0c-10.4,0-18.8,4.2-24.1,13.3c-1.6,2.7-2.6,6.2-2.6,9.4c-0.3,17,0,34-0.2,51c0,4,1.2,5.1,5.1,5.1
                c25-0.2,50-0.1,75-0.1c2,0,3.9,0,7.3,0c-3.5,28.6-6.9,56.6-10.4,84.9c-26,0-51.3,0-77.1,0C308.3,340.8,308.3,424.4,308.3,508.5z"/>
        </g>
    </symbol>
    <symbol id="twitter" viewBox="0 0 512 512">
        <g>
            <path d="M4,440.5c55.6,5,105.7-9,151.3-43.2c-47.7-4.2-79.6-28-97.4-72.6c15.6,1.9,30.2,2.4,45.7-1.8
                c-51.4-16-78.8-49.6-82.5-103.8c15.4,7.2,29.9,12.4,47,12.6c-30.5-22.9-46.1-52.6-45.5-90c0.3-17.2,4.9-33.4,14-48.7
                C93.1,159.1,164,195.7,251.3,201.8c-0.5-3.8-0.8-6.8-1.2-9.9c-7.2-55.4,28.8-105.8,83.8-116.3c34.5-6.6,65,2.5,90.8,26.3
                c4,3.6,7.4,4.4,12.4,3.1c20.1-5.1,39.2-12.5,57.7-22.5c-7.1,23.4-21.7,41-41.5,55.8c4.5-0.8,9.1-1.4,13.6-2.3
                c4.7-1,9.4-2.1,14.1-3.4c4.5-1.2,8.9-2.6,13.3-4.1c4.5-1.5,9-3.2,14.3-4.1c-2.6,3.6-5.1,7.4-7.9,10.9c-11.6,14.7-25,27.6-39.7,39.1
                c-1.5,1.2-2.8,3.8-2.7,5.6c0.8,35.5-4.2,70.1-15.7,103.7c-22.6,66.2-62,119.8-121.1,158.1c-29.2,18.9-61.1,31.3-95.2,38.5
                c-33.8,7.1-67.8,8.4-101.9,4.4c-34.2-4-66.7-14.1-97.3-29.9c-8.1-4.1-15.9-8.7-23.8-13.1C3.6,441.3,3.8,440.9,4,440.5z"/>
        </g>
    </symbol>
    <symbol id="instagram" viewBox="0 0 1024 1024">
        <g>
            <path clip-rule="evenodd" d="M512.305,0.122c70.856,0,141.717-0.328,212.571,0.094
            c66.662,0.398,129.269,15.6,183.515,56.125c70.84,52.923,107.091,125.214,113.838,212.445c2.376,30.7,1.637,61.667,1.677,92.512
            c0.161,119.619,0.072,239.239,0.059,358.86c-0.005,48.856-6.799,96.557-27.473,141.232
            c-41.938,90.623-115.091,140.165-211.608,157.334c-20.125,3.579-40.886,4.916-61.359,4.977
            c-141.333,0.417-282.669,0.321-424.003,0.174c-73.495-0.075-140.713-19.483-197.994-67.166
            c-58.197-48.439-88.907-111.793-98.46-186.071c-1.648-12.811-2.657-25.805-2.669-38.714
            C0.261,583.352-0.636,434.771,0.82,286.214c0.796-81.166,27.822-153.13,88.244-209.835
            c50.119-47.032,111.04-71.607,178.739-74.012c81.404-2.892,162.991-0.685,244.499-0.685
            C512.303,1.161,512.303,0.641,512.305,0.122z M511.505,929.369c68.18,0,136.358,0.274,204.534-0.188
            c17.83-0.121,35.919-1.007,53.414-4.171c66.827-12.081,117.634-45.6,144.26-110.67c13.528-33.055,17.946-68.524,18.522-102.876
            c2.237-133.271,0.976-266.602,0.819-399.911c-0.018-14.442-0.174-29.045-2.217-43.295
            c-9.163-63.988-36.903-116.435-95.792-148.329c-32.869-17.801-68.551-24.522-105.64-24.534
            c-142.831-0.042-285.662-0.084-428.492,0.087c-12.908,0.016-25.93,0.73-38.702,2.525
            c-72.746,10.214-126.329,46.066-153.145,116.6c-10.822,28.463-14.28,58.288-14.286,88.569
            c-0.021,139.403-0.155,278.803,0.183,418.208c0.041,17.055,1.313,34.355,4.366,51.114
            c13.543,74.355,55.004,125.461,128.843,146.011c24.606,6.845,50.909,9.868,76.522,10.384
            C373.608,930.277,442.565,929.364,511.505,929.369z" fill-rule="evenodd"/>
            <path clip-rule="evenodd" d="M775.903,510.369c-0.064,145.777-119.005,264.347-264.821,263.991
            c-145.871-0.353-263.345-118.096-263.43-264.029C247.567,364.56,366.331,245.98,512.255,246.139
            C656.921,246.295,775.968,365.605,775.903,510.369z M511.878,679.188c93.007,0.071,169.609-76.475,169.448-169.325
            c-0.161-92.206-76.568-168.757-168.818-169.132c-92.873-0.377-169.438,75.935-169.635,169.074
            C342.677,603.077,418.542,679.114,511.878,679.188z" fill-rule="evenodd"/>
            <path clip-rule="evenodd" d="M785.693,299.338c-33.019-0.295-59.047-26.717-58.941-59.832
            c0.104-33.491,26.785-59.75,60.471-59.52c32.644,0.226,59.246,27.168,59.147,59.904
            C846.27,273.09,819.174,299.637,785.693,299.338z" fill-rule="evenodd"/>
        </g>
    </symbol>
    <symbol id="downarrow" viewBox="0 0 16 16">
        <g>
            <path fill="#fff" d="M13 4v2l-5 5-5-5v-2l5 5z">
            </path>
	    </g>
    </symbol>
    <symbol id="rightarrow" viewBox="0 0 16 16">
        <g>
            <path fill="#fff" d="M4 13h2l5-5-5-5h-2l5 5z">
            </path>
	    </g>
    </symbol>
    <symbol id="leftarrow" viewBox="0 0 16 16">
        <g>
            <path fill="#fff" d="M12 13h-2l-5-5 5-5h2l-5 5z">
            </path>
	    </g>
    </symbol>
    <symbol id="localpointer" viewBox="0 0 80 80">
        <g>
		    <path d="M40,0C26.191,0,15,11.194,15,25c0,23.87,25,55,25,55s25-31.13,25-55C65,11.194,53.807,0,40,0z
			 M40,38.8c-7.457,0-13.5-6.044-13.5-13.5S32.543,11.8,40,11.8c7.455,0,13.5,6.044,13.5,13.5S47.455,38.8,40,38.8z"/>
	    </g>
    </symbol>
    <symbol id="logo" viewBox="0 0 241 54">
        <g>
            <path d="M25.24 42.79l16.65-.146-10.81-18.508-13.64 24.312L0 48.602 25.747
            3.835l3.229 5.527L9.67 42.928l4.52-.04 16.792-29.93 20.555 35.19-28.619.252zM67.677
            53.99L36.366.225l.371-.22 9.885 16.975v-5.317h5.181l4.22 7.043 4.22-7.043h5.181v18.191h-4.877V19.408l-4.524
            7.12h-.1l-4.5-7.068v5.765l16.624 28.544zm2.808-33.178v-.052c0-5.223 4.094-9.46 9.553-9.46
            5.459 0 9.502 4.184 9.502 9.408v.052c0 5.223-4.095 9.459-9.553 9.459-5.459
            0-9.502-4.184-9.502-9.407zm14.051 0v-.052c0-2.625-1.845-4.912-4.55-4.912-2.678 0-4.472
            2.235-4.472 4.86v.052c0 2.625 1.845 4.911 4.524 4.911 2.704 0 4.498-2.234
            4.498-4.859zm10.089-9.148h4.574l7.278 9.616v-9.616h4.852v18.191h-4.296l-7.556-9.979v9.98h-4.852zm26.691
            4.418h-5.307v-4.418h15.517v4.418h-5.307v13.773h-4.903zm14.99-4.418h4.929v18.191h-4.929zm10.086
            9.148v-.052c0-5.301 3.968-9.46 9.325-9.46 3.614 0 5.939 1.56 7.506 3.795l-3.69
            2.936c-1.01-1.3-2.173-2.13-3.866-2.13-2.476 0-4.22 2.156-4.22 4.807v.052c0 2.729 1.744
            4.86 4.22 4.86 1.845 0 2.931-.884 3.993-2.21l3.69 2.703c-1.668 2.365-3.918 4.106-7.835
            4.106-5.054 0-9.123-3.976-9.123-9.407zm21.586-9.148h14.229v4.288h-9.376v2.755h8.49v3.976h-8.49v2.884h9.502v4.288h-14.355zm19.388 0h4.903v13.774h8.567v4.417h-13.47zm18.099 0h4.902v13.774h8.568v4.417h-13.47zm16.48
            9.148v-.052c0-5.223 4.095-9.46 9.554-9.46 5.459 0 9.502 4.184 9.502 9.408v.052c0 5.223-4.095
            9.459-9.553 9.459-5.459 0-9.502-4.184-9.502-9.407zm14.052 0v-.052c0-2.625-1.845-4.912-4.55-4.912-2.678 0-4.472
            2.235-4.472 4.86v.052c0 2.625 1.844 4.911 4.524 4.911 2.704 0 4.498-2.234 4.498-4.859zM71.494
            39.707h.678v6.06h-.678zm5.875 0h.636l3.786 4.857v-4.857h.661v6.06h-.541l-3.88-4.97v4.97h-.662zm11.811.63h-2.018v-.63h4.722v.63h-2.018v5.43h-.686zm7.414-.63h4.345v.623h-3.666v2.069h3.279v.623h-3.28v2.121h3.71v.625h-4.388zm9.19
            0h2.585c.739 0 1.331.225 1.709.606.291.294.463.719.463 1.194v.018c0 1.004-.687 1.593-1.63
            1.766l1.845 2.477h-.833l-1.742-2.355h-1.717v2.355h-.68zm2.525 3.09c.902 0 1.545-.468
            1.545-1.246v-.017c0-.746-.566-1.196-1.536-1.196h-1.854v2.46zm7.123-3.09h.636l3.786
            4.857v-4.857h.66v6.06h-.54l-3.88-4.97v4.97h-.662zm12.446-.044h.635l2.739
            6.105h-.73l-.704-1.603h-3.27l-.714 1.603h-.695zm1.674 3.888l-1.365-3.09-1.374
            3.09zm7.14-3.213h-2.018v-.631h4.722v.63h-2.018v5.43h-.686zm7.475-.631h.677v6.06h-.677zm5.61
            3.047v-.017c0-1.671 1.244-3.135 3.073-3.135s3.056 1.447 3.056 3.118v.017c0 1.67-1.245
            3.134-3.074 3.134-1.829 0-3.056-1.446-3.056-3.117zm5.425 0v-.017c0-1.377-.996-2.502-2.37-2.502-1.373 0-2.352 1.108-2.352 2.485v.017c0
            1.376.996 2.502 2.37 2.502 1.373 0 2.352-1.108 2.352-2.485zm5.577-3.047h.636l3.786
            4.857v-4.857h.66v6.06h-.54l-3.881-4.97v4.97h-.661zm12.446-.044h.636l2.738
            6.105h-.73l-.703-1.603h-3.27l-.714 1.603h-.695zm1.675 3.888l-1.366-3.09-1.373
            3.09zm6.324-3.844h.679v5.428h3.382v.633h-4.06zm14.5 3.047v-.017c0-1.663 1.211-3.135
            3.014-3.135 1.013 0 1.64.295 2.24.805l-.438.52c-.463-.406-.978-.692-1.827-.692-1.332
            0-2.285 1.133-2.285 2.485v.017c0 1.445.919 2.52 2.379 2.52a2.82 2.82 0 0 0 1.733-.606v-1.507h-1.827v-.615h2.48v2.416c-.558.502-1.4.926-2.413.926-1.888
            0-3.055-1.385-3.055-3.117zm10.437-3.047h2.585c.738 0 1.33.225 1.708.606.292.294.464.719.464
            1.194v.018c0 1.004-.688 1.593-1.631 1.766l1.845 2.477h-.833l-1.742-2.355h-1.717v2.355h-.679zm2.524 3.09c.902 0 1.545-.468
            1.545-1.246v-.017c0-.746-.566-1.196-1.536-1.196h-1.854v2.46zm6.857-.043v-.017c0-1.671
            1.244-3.135 3.073-3.135s3.056 1.447 3.056 3.118v.017c0 1.67-1.245 3.134-3.073 3.134-1.83
            0-3.056-1.446-3.056-3.117zm5.425 0v-.017c0-1.377-.995-2.502-2.37-2.502-1.373 0-2.352
            1.108-2.352 2.485v.017c0 1.376.996 2.502 2.37 2.502 1.373 0 2.352-1.108
            2.352-2.485zm5.484.477v-3.524h.678v3.48c0 1.307.687 2.043 1.837 2.043 1.108 0
            1.812-.675 1.812-2v-3.523h.678v3.472c0 1.766-1.004 2.683-2.507 2.683-1.485
            0-2.498-.917-2.498-2.631zm10.05-3.524h2.25c1.356 0 2.249.727 2.249 1.922v.017c0
            1.308-1.082 1.983-2.36 1.983h-1.46v2.139h-.679zm2.164 3.298c.995 0 1.648-.536
            1.648-1.334v-.017c0-.866-.644-1.316-1.614-1.316h-1.52v2.667z"/>
        </g>
    </symbol>
</svg>